# xmcd CD database file
#
# Track frame offsets:
#	183
#	19430
#	35098
#	53803
#	73050
#	83540
#	98495
#	112370
#	128348
#	150783
#	168033
#	184893
#	198320
#	213030
#	229333
#	242225
#	263233
#	281078
#
# Disc length: 3895 seconds
#
# Revision: 0
# Processed by: cddbd v1.4PL0 Copyright (c) Steve Scherf et al.
# Submitted via: CDex 1.50Beta1
#
DISCID=f30f3512
DTITLE=Panflute - the magic
DYEAR=1989
DGENRE=Blues
TTITLE0=lonely shepherd
TTITLE1=let it be
TTITLE2=up where we belong
TTITLE3=aranuez mon amour
TTITLE4=el condor pasa
TTITLE5=something
TTITLE6=angelique
TTITLE7=dolannes melodie
TTITLE8=bridge over troubled water
TTITLE9=heartbreaker
TTITLE10=l ete indien
TTITLE11=dont cry for me argentina
TTITLE12=moonlight shadow
TTITLE13=do that to me one more time
TTITLE14=michelle
TTITLE15=reality
TTITLE16=even the nights are better
TTITLE17=i dream of you
EXTD=YEAR: 1989
EXTT0=
EXTT1=
EXTT2=
EXTT3=
EXTT4=
EXTT5=
EXTT6=
EXTT7=
EXTT8=
EXTT9=
EXTT10=
EXTT11=
EXTT12=
EXTT13=
EXTT14=
EXTT15=
EXTT16=
EXTT17=
PLAYORDER=
